<svg
    display="none"
    xmlns="http://www.w3.org/2000/svg"
>
    <symbol
        id="envelope"
        viewBox="0 0 30 31"
    >
        <path
            d="M0 8C0 5.92893 1.67893 4.25 3.75 4.25H26.25C28.3211 4.25 30 5.92893 30 8V23C30 25.0711 28.3211 26.75 26.25 26.75H3.75C1.67893 26.75 0 25.0711 0 23V8ZM3.75 6.125C2.71447 6.125 1.875 6.96447 1.875 8V8.4067L15 16.2817L28.125 8.4067V8C28.125 6.96447 27.2855 6.125 26.25 6.125H3.75ZM28.125 10.5933L19.2974 15.8899L28.125 21.3223V10.5933ZM28.0617 23.4849L17.4859 16.9767L15 18.4683L12.5141 16.9767L1.93831 23.4849C2.15202 24.2854 2.88216 24.875 3.75 24.875H26.25C27.1178 24.875 27.848 24.2854 28.0617 23.4849ZM1.875 21.3223L10.7026 15.8899L1.875 10.5933V21.3223Z"
        />
    </symbol>

    <symbol
        id="shield"
        viewBox="0 0 30 31"
    >
        <path
            d="M2.54417 7.0217C1.75527 14.4622 4.17467 20.012 7.08656 23.7301C8.59187 25.6521 10.2279 27.0846 11.6198 28.0426C12.3153 28.5213 12.9598 28.8885 13.5072 29.1399C14.0129 29.3723 14.554 29.5625 15.0001 29.5625C15.4462 29.5625 15.9873 29.3723 16.493 29.1399C17.0404 28.8885 17.6849 28.5213 18.3804 28.0426C19.254 27.4414 20.2237 26.6532 21.1969 25.6744L19.8711 24.3486C18.9815 25.2437 18.1003 25.9592 17.3173 26.4981C16.6941 26.9271 16.1431 27.2373 15.7102 27.4362C15.4935 27.5358 15.3162 27.6029 15.1816 27.6436C15.0707 27.6771 15.0136 27.685 15.0001 27.6869C14.9865 27.685 14.9295 27.6771 14.8186 27.6436C14.684 27.6029 14.5067 27.5358 14.29 27.4362C13.857 27.2373 13.3061 26.9271 12.6829 26.4981C11.4374 25.6409 9.94347 24.3369 8.56272 22.574C6.11598 19.4498 4.02171 14.8841 4.29192 8.76945L2.54417 7.0217Z"
        />
        <path
            d="M23.2678 19.7904C25.0895 16.4433 26.2576 12.0103 25.4949 6.42333C25.4523 6.11182 25.2259 5.83921 24.9033 5.73649C23.731 5.36313 21.7503 4.75136 19.7944 4.2339C17.7947 3.70482 15.9561 3.3125 15.0001 3.3125C14.044 3.3125 12.2055 3.70482 10.2058 4.2339C9.54719 4.40814 8.8858 4.59307 8.2534 4.77599L6.74325 3.26583C7.66485 2.99032 8.6975 2.69343 9.72619 2.42126C11.6816 1.90392 13.7583 1.4375 15.0001 1.4375C16.2419 1.4375 18.3186 1.90392 20.274 2.42126C22.2733 2.95022 24.2875 3.57255 25.4723 3.94991C26.4611 4.26483 27.209 5.11764 27.3526 6.1697C28.2115 12.4602 26.7922 17.4481 24.6448 21.1674L23.2678 19.7904Z"
        />
        <path
            fill-rule="evenodd"
            clip-rule="evenodd"
            d="M25.5872 27.4129L1.21216 3.03787L2.53798 1.71204L26.913 26.087L25.5872 27.4129Z"
        />
    </symbol>

    <symbol
        id="eye"
        viewBox="0 0 30 31"
    >
        <path
            d="M25.0479 21.5704C28.2399 18.7268 30 15.5 30 15.5C30 15.5 24.375 5.1875 15 5.1875C13.0962 5.1875 11.347 5.61279 9.76813 6.29063L11.2135 7.73601C12.3934 7.3122 13.6583 7.0625 15 7.0625C18.9738 7.0625 22.2731 9.25284 24.6898 11.6696C25.8819 12.8617 26.8085 14.0599 27.4364 14.9608C27.5727 15.1564 27.6944 15.3373 27.8012 15.5C27.6944 15.6627 27.5727 15.8436 27.4364 16.0392C26.8085 16.9401 25.8819 18.1383 24.6898 19.3304C24.3808 19.6395 24.0573 19.9448 23.7198 20.2423L25.0479 21.5704Z"
        />
        <path
            d="M21.1828 17.7053C21.4286 17.016 21.5625 16.2737 21.5625 15.5C21.5625 11.8756 18.6244 8.9375 15 8.9375C14.2263 8.9375 13.484 9.07138 12.7947 9.31723L14.3366 10.8591C14.5533 10.8284 14.7748 10.8125 15 10.8125C17.5888 10.8125 19.6875 12.9112 19.6875 15.5C19.6875 15.7252 19.6716 15.9467 19.6409 16.1634L21.1828 17.7053Z"
        />
        <path
            d="M15.6635 20.1409L17.2053 21.6828C16.5161 21.9286 15.7737 22.0625 15 22.0625C11.3756 22.0625 8.4375 19.1244 8.4375 15.5C8.4375 14.7263 8.57138 13.9839 8.81724 13.2947L10.3591 14.8365C10.3284 15.0533 10.3125 15.2748 10.3125 15.5C10.3125 18.0888 12.4112 20.1875 15 20.1875C15.2252 20.1875 15.4467 20.1716 15.6635 20.1409Z"
        />
        <path
            d="M6.2802 10.7576C5.94273 11.0552 5.61925 11.3605 5.3102 11.6696C4.11808 12.8617 3.19155 14.0599 2.56364 14.9608C2.42726 15.1564 2.30555 15.3373 2.19881 15.5C2.30555 15.6627 2.42726 15.8436 2.56364 16.0392C3.19155 16.9401 4.11808 18.1383 5.3102 19.3304C7.72693 21.7472 11.0262 23.9375 15 23.9375C16.3418 23.9375 17.6066 23.6878 18.7865 23.264L20.2319 24.7094C18.6531 25.3872 16.9039 25.8125 15 25.8125C5.625 25.8125 0 15.5 0 15.5C0 15.5 1.76009 12.2732 4.95209 9.42954L6.2802 10.7576Z"
        />
        <path
            d="M25.5871 27.4129L3.08709 4.91291L4.41291 3.58709L26.9129 26.0871L25.5871 27.4129Z"
        />
    </symbol>
</svg>
